<svg xmlns="http://www.w3.org/2000/svg" width="672.49811mm" height="100mm" viewBox="0 0 672.49811 100"><path d="M92.261 161.885c12.805 0 23.896 5.32 29.937 10.189l12.895-17.043c-11.091-8.566-26.51-13.435-43.192-13.435-33.273 0-56.808 21.55-56.808 49.955 0 28.584 23.535 50.045 56.808 50.045 17.403 0 33.003-5.05 44.184-14.247l-13.436-16.592-.721.632c-6.042 4.779-17.043 9.918-29.667 9.918-20.559 0-35.888-11.902-35.888-29.756 0-17.764 15.33-29.666 35.888-29.666zM312.64 161.885c12.895 0 23.896 5.32 29.937 10.189l12.895-17.043c-11.091-8.566-26.51-13.435-43.192-13.435-33.274 0-56.808 21.55-56.808 49.955 0 28.584 23.534 50.045 56.808 50.045 17.403 0 33.002-5.05 44.184-14.247l-13.436-16.592-.721.632c-6.042 4.779-17.043 9.918-29.667 9.918-20.559 0-35.798-11.902-35.798-29.756 0-17.764 15.24-29.666 35.798-29.666zM519.854 221.307c-21.19 0-35.978-12.263-35.978-29.756 0-17.403 14.788-29.666 35.978-29.666 21.1 0 35.888 12.263 35.888 29.666 0 17.493-14.788 29.756-35.888 29.756zm0-79.711c-33.183 0-58.16 21.46-58.16 49.955 0 28.584 24.977 50.045 58.16 50.045 33.093 0 58.07-21.46 58.07-50.045 0-28.494-24.977-49.955-58.07-49.955zM649.52 221.307c-21.19 0-35.978-12.263-35.978-29.756 0-17.403 14.788-29.666 35.979-29.666 21.1 0 35.888 12.263 35.888 29.666 0 17.493-14.788 29.756-35.888 29.756zm0-79.711c-33.182 0-58.16 21.46-58.16 49.955 0 28.584 24.978 50.045 58.16 50.045 33.093 0 58.07-21.46 58.07-50.045 0-28.494-24.977-49.955-58.07-49.955z" style="fill:#585856;fill-opacity:1;fill-rule:nonzero;stroke:none;stroke-width:3.00571" transform="translate(-35.093 -141.596)"/><path d="M468.006 143.67h-29.937l-47.701 44.454V143.67h-20.92v95.401h20.92v-44.995l48.963 45.085h30.207l-52.93-48.782zM221.748 200.478c0 8.476-4.87 20.65-27.232 20.65-25.88 0-26.15-17.134-26.15-20.65V143.67h-21.01v60.775c0 16.321 14.247 37.15 47.16 37.15 33.273 0 48.151-21.28 48.151-37.15V143.67h-20.92z" style="fill:#585856;fill-opacity:1;fill-rule:nonzero;stroke:none;stroke-width:3.00571" transform="translate(-35.093 -141.596)"/></svg>